<svg xmlns="http://www.w3.org/2000/svg" width="273" height="142" viewBox="0 0 273 142" fill="none">
  <g opacity="0.3">
    <path d="M255.178 49.1431L176.976 -0.399954L16.1807 123.959L255.178 49.1431Z" stroke="#5C6BB8" stroke-width="0.579413"/>
    <g filter="url(#filter0_f_588_2703)">
      <circle cx="4.11432" cy="4.11432" r="4.11432" transform="matrix(0.0309962 0.99952 0.99952 -0.0309962 13.9971 119.91)" fill="#C35CFC"/>
    </g>
    <g filter="url(#filter1_f_588_2703)">
      <circle cx="4.11432" cy="4.11432" r="4.11432" transform="matrix(0.0309962 0.99952 0.99952 -0.0309962 250.409 44.6602)" fill="#C35CFC"/>
    </g>
    <circle cx="4.11432" cy="4.11432" r="4.11432" transform="matrix(0.0309962 0.99952 0.99952 -0.0309962 13.9971 119.91)" fill="#C35CFC"/>
    <circle cx="4.11432" cy="4.11432" r="4.11432" transform="matrix(0.0309962 0.99952 0.99952 -0.0309962 250.409 44.6602)" fill="#C35CFC"/>
    <g filter="url(#filter2_f_588_2703)">
      <circle cx="4.11432" cy="4.11432" r="4.11432" transform="matrix(0.0309962 0.99952 0.99952 -0.0309962 172.736 -4.38477)" fill="#C35CFC"/>
    </g>
    <circle cx="4.11432" cy="4.11432" r="4.11432" transform="matrix(0.0309962 0.99952 0.99952 -0.0309962 172.736 -4.38477)" fill="#C35CFC"/>
  </g>
  <defs>
    <filter id="filter0_f_588_2703" x="0.417763" y="106.076" width="35.6381" height="35.6381" filterUnits="userSpaceOnUse" color-interpolation-filters="sRGB">
      <feFlood flood-opacity="0" result="BackgroundImageFix"/>
      <feBlend mode="normal" in="SourceGraphic" in2="BackgroundImageFix" result="shape"/>
      <feGaussianBlur stdDeviation="6.8524" result="effect1_foregroundBlur_588_2703"/>
    </filter>
    <filter id="filter1_f_588_2703" x="236.829" y="30.8265" width="35.6381" height="35.6381" filterUnits="userSpaceOnUse" color-interpolation-filters="sRGB">
      <feFlood flood-opacity="0" result="BackgroundImageFix"/>
      <feBlend mode="normal" in="SourceGraphic" in2="BackgroundImageFix" result="shape"/>
      <feGaussianBlur stdDeviation="6.8524" result="effect1_foregroundBlur_588_2703"/>
    </filter>
    <filter id="filter2_f_588_2703" x="159.157" y="-18.2185" width="35.6381" height="35.6381" filterUnits="userSpaceOnUse" color-interpolation-filters="sRGB">
      <feFlood flood-opacity="0" result="BackgroundImageFix"/>
      <feBlend mode="normal" in="SourceGraphic" in2="BackgroundImageFix" result="shape"/>
      <feGaussianBlur stdDeviation="6.8524" result="effect1_foregroundBlur_588_2703"/>
    </filter>
  </defs>
</svg>