<svg xmlns="http://www.w3.org/2000/svg" width="29" height="29" viewBox="0 0 29 29" fill="none">
  <g clip-path="url(#clip0_588_2715)">
    <path d="M14.5088 0.871094C7.16289 0.871094 1.20801 6.8263 1.20801 14.1726C1.20801 21.519 7.16289 27.4742 14.5088 27.4742C21.8547 27.4742 27.8096 21.519 27.8096 14.1726C27.8096 6.8263 21.8547 0.871094 14.5088 0.871094ZM11.2529 19.6858H8.55947V11.0177H11.2529V19.6858ZM9.88955 9.95355C9.03885 9.95355 8.48881 9.35082 8.48881 8.60538C8.48881 7.8447 9.05548 7.25999 9.92419 7.25999C10.7929 7.25999 11.3249 7.8447 11.3416 8.60538C11.3416 9.35082 10.7929 9.95355 9.88955 9.95355ZM21.0899 19.6858H18.3965V14.882C18.3965 13.7639 18.0058 13.0046 17.0318 13.0046C16.2878 13.0046 15.8458 13.5186 15.6505 14.0133C15.5784 14.1893 15.5604 14.4387 15.5604 14.6867V19.6845H12.8656V13.7819C12.8656 12.6998 12.831 11.795 12.7949 11.0163H15.1351L15.2584 12.2204H15.3124C15.6671 11.655 16.5358 10.8209 17.9892 10.8209C19.7612 10.8209 21.0899 12.0084 21.0899 14.5606V19.6858Z" fill="white"/>
  </g>
  <defs>
    <clipPath id="clip0_588_2715">
      <rect width="27.71" height="27.7115" fill="white" transform="translate(0.653809 0.316406)"/>
    </clipPath>
  </defs>
</svg>