<svg width="257" height="59" viewBox="0 0 257 59" fill="none" xmlns="http://www.w3.org/2000/svg">
<g clip-path="url(#clip0_588_2733)">
<path fill-rule="evenodd" clip-rule="evenodd" d="M34.9448 9.20572L36.4694 7.62341L33.2831 4.29128L29.1803 0L28.9166 0.263773L25.0654 4.29128L23.9767 5.42996L18.6014 11.0518L14.7503 15.0793L14.5901 15.2471L13.6615 16.218L10.9451 19.0707L10.051 19.9938L7.28909 22.8826L4.43557 25.8673L3.34681 27.006L0 30.5063L26.6245 58.3511V43.1043L25.6273 42.0613L25.157 41.5698L23.9767 40.3352L21.8792 38.1297L14.5901 30.5063L19.0253 25.8673L21.8792 22.8826L24.6297 19.9938L28.9166 15.5109L29.1683 15.2471L29.3289 15.0793L34.9448 9.20572ZM52.692 36.3487L58.5716 30.1993L47.7641 18.8961L47.7296 18.86L44.8526 15.8511L44.016 14.9762L43.8558 14.8084L40.2224 10.8531L38.847 12.2913L36.715 14.5209L33.9071 17.4575L28.5318 23.0794L26.3999 25.3089L25.3801 26.3878L23.5919 28.2456L21.7356 30.1993L23.9816 32.7047L25.5287 34.3228L27.7642 36.6603L28.9215 37.8709L29.2768 38.2426L32.532 34.8383L32.9333 34.4308L33.5062 33.8193L36.4057 30.7867L38.1479 28.9647L39.2367 27.826L40.2224 26.807L40.4745 26.5315L43.9815 30.1993L33.4031 41.2632L33.0474 41.6466L31.8741 42.9997V58.2469L32.5046 57.5996L49.7695 39.4051L51.2825 37.8351L52.692 36.3487Z" fill="url(#paint0_linear_588_2733)"/>
</g>
<path d="M74.5951 41.7852V17.63H82.1178V35.7464H89.7094V41.7852H74.5951ZM99.3122 30.8808H101.521L100.83 23.7033H100.002L99.3122 30.8808ZM94.136 17.63H106.697L110.078 38.783V41.7852H102.521L102.073 36.9196H98.76L98.2769 41.7852H90.7543V38.783L94.136 17.63ZM114.945 35.1942L109.045 20.6321V17.63H116.602L118.431 27.016H118.983L120.846 17.63H128.369V20.6321L122.468 35.1942V41.7852H114.945V35.1942ZM146.246 41.7852H130.097V17.63H146.246V20.6321L145.039 23.7033H137.619V26.3948H145.039V32.4336H137.619V35.7464H146.246V41.7852ZM158.887 23.7033H155.885V28.2237H158.887V23.7033ZM148.328 17.63H163.442C165.202 17.63 166.444 18.8722 166.444 20.6321V30.1216C166.444 31.2604 165.582 32.5372 164.443 32.8477L166.824 38.783V41.7852H159.439L157.403 34.2625H155.885V41.7852H148.328V17.63ZM171.921 17.63H186.862V20.6321L185.655 23.7033H176.441V35.7464H179.443V27.6371H187V41.7852H171.921C170.126 41.7852 168.884 40.5429 168.884 38.783V20.6321C168.884 18.8722 170.126 17.63 171.921 17.63ZM197.645 30.8808H199.853L199.163 23.7033H198.335L197.645 30.8808ZM192.469 17.63H205.029L208.411 38.783V41.7852H200.854L200.405 36.9196H197.093L196.61 41.7852H189.087V38.783L192.469 17.63ZM219.613 41.7852L217.749 30.1907H217.163V41.7852H209.778V38.783L212.263 17.63H220.682L222.511 27.154H223.029L224.858 17.63H233.312L235.762 38.783V41.7852H228.412V30.1907H227.791L225.927 41.7852H219.613ZM253.981 41.7852H237.831V17.63H253.981V20.6321L252.773 23.7033H245.354V26.3948H252.773V32.4336H245.354V35.7464H253.981V41.7852Z" fill="url(#paint1_linear_588_2733)"/>
<defs>
<linearGradient id="paint0_linear_588_2733" x1="0" y1="0" x2="62.2056" y2="4.33489" gradientUnits="userSpaceOnUse">
<stop stop-color="#30BBEE"/>
<stop offset="1" stop-color="#C659FC"/>
</linearGradient>
<linearGradient id="paint1_linear_588_2733" x1="73.2148" y1="8.78516" x2="250.599" y2="63.4504" gradientUnits="userSpaceOnUse">
<stop stop-color="#30BBEE"/>
<stop offset="1" stop-color="#C659FC"/>
</linearGradient>
<clipPath id="clip0_588_2733">
<rect width="58.572" height="58.572" fill="white"/>
</clipPath>
</defs>
</svg>
