<svg width="60" height="60" viewBox="0 0 60 60" fill="none" xmlns="http://www.w3.org/2000/svg">
<g clip-path="url(#clip0_2081_459)">
<path d="M57.0119 2.34375L33.6001 19.732L37.9295 9.47316L57.0119 2.34375Z" fill="#E2761B" stroke="#E2761B" stroke-linecap="round" stroke-linejoin="round"/>
<path d="M2.96484 2.34375L26.1884 19.8967L22.0707 9.47316L2.96484 2.34375Z" fill="#E4761B" stroke="#E4761B" stroke-linecap="round" stroke-linejoin="round"/>
<path d="M48.5883 42.6504L42.353 52.2033L55.6942 55.8739L59.5295 42.8622L48.5883 42.6504Z" fill="#E4761B" stroke="#E4761B" stroke-linecap="round" stroke-linejoin="round"/>
<path d="M0.494141 42.8622L4.3059 55.8739L17.6471 52.2033L11.4118 42.6504L0.494141 42.8622Z" fill="#E4761B" stroke="#E4761B" stroke-linecap="round" stroke-linejoin="round"/>
<path d="M16.8939 26.5079L13.1763 32.1314L26.4233 32.7197L25.9527 18.4844L16.8939 26.5079Z" fill="#E4761B" stroke="#E4761B" stroke-linecap="round" stroke-linejoin="round"/>
<path d="M43.0824 26.5085L33.906 18.3203L33.6001 32.7203L46.8236 32.1321L43.0824 26.5085Z" fill="#E4761B" stroke="#E4761B" stroke-linecap="round" stroke-linejoin="round"/>
<path d="M17.647 52.2021L25.5999 48.3198L18.7293 42.9551L17.647 52.2021Z" fill="#E4761B" stroke="#E4761B" stroke-linecap="round" stroke-linejoin="round"/>
<path d="M34.3765 48.3198L42.3529 52.2021L41.2471 42.9551L34.3765 48.3198Z" fill="#E4761B" stroke="#E4761B" stroke-linecap="round" stroke-linejoin="round"/>
<path d="M42.3529 52.2027L34.3765 48.3203L35.0118 53.5203L34.9412 55.7085L42.3529 52.2027Z" fill="#D7C1B3" stroke="#D7C1B3" stroke-linecap="round" stroke-linejoin="round"/>
<path d="M17.647 52.2027L25.0587 55.7085L25.0117 53.5203L25.5999 48.3203L17.647 52.2027Z" fill="#D7C1B3" stroke="#D7C1B3" stroke-linecap="round" stroke-linejoin="round"/>
<path d="M25.1763 39.5199L18.541 37.567L23.2234 35.4258L25.1763 39.5199Z" fill="#233447" stroke="#233447" stroke-linecap="round" stroke-linejoin="round"/>
<path d="M34.7998 39.5199L36.7527 35.4258L41.4586 37.567L34.7998 39.5199Z" fill="#233447" stroke="#233447" stroke-linecap="round" stroke-linejoin="round"/>
<path d="M17.6469 52.2033L18.7763 42.6504L11.4116 42.8622L17.6469 52.2033Z" fill="#CD6116" stroke="#CD6116" stroke-linecap="round" stroke-linejoin="round"/>
<path d="M41.2236 42.6504L42.353 52.2033L48.5883 42.8622L41.2236 42.6504Z" fill="#CD6116" stroke="#CD6116" stroke-linecap="round" stroke-linejoin="round"/>
<path d="M46.8236 32.1328L33.6001 32.721L34.8236 39.521L36.7766 35.4269L41.4825 37.5681L46.8236 32.1328Z" fill="#CD6116" stroke="#CD6116" stroke-linecap="round" stroke-linejoin="round"/>
<path d="M18.541 37.5681L23.2469 35.4269L25.1763 39.521L26.4233 32.721L13.1763 32.1328L18.541 37.5681Z" fill="#CD6116" stroke="#CD6116" stroke-linecap="round" stroke-linejoin="round"/>
<path d="M13.1763 32.1328L18.7292 42.9563L18.541 37.5681L13.1763 32.1328Z" fill="#E4751F" stroke="#E4751F" stroke-linecap="round" stroke-linejoin="round"/>
<path d="M41.4824 37.5681L41.2471 42.9563L46.8235 32.1328L41.4824 37.5681Z" fill="#E4751F" stroke="#E4751F" stroke-linecap="round" stroke-linejoin="round"/>
<path d="M26.4233 32.7207L25.1763 39.5207L26.7292 47.5442L27.0821 36.9795L26.4233 32.7207Z" fill="#E4751F" stroke="#E4751F" stroke-linecap="round" stroke-linejoin="round"/>
<path d="M33.5997 32.7207L32.9644 36.956L33.2467 47.5442L34.8232 39.5207L33.5997 32.7207Z" fill="#E4751F" stroke="#E4751F" stroke-linecap="round" stroke-linejoin="round"/>
<path d="M34.8235 39.5193L33.2471 47.5429L34.3765 48.3193L41.2471 42.9546L41.4824 37.5664L34.8235 39.5193Z" fill="#F6851B" stroke="#F6851B" stroke-linecap="round" stroke-linejoin="round"/>
<path d="M18.541 37.5664L18.7293 42.9546L25.5998 48.3193L26.7292 47.5429L25.1763 39.5193L18.541 37.5664Z" fill="#F6851B" stroke="#F6851B" stroke-linecap="round" stroke-linejoin="round"/>
<path d="M34.9411 55.709L35.0117 53.5208L34.4234 53.0031H25.5529L25.0117 53.5208L25.0587 55.709L17.647 52.2031L20.2352 54.3208L25.4823 57.9678H34.494L39.7646 54.3208L42.3529 52.2031L34.9411 55.709Z" fill="#C0AD9E" stroke="#C0AD9E" stroke-linecap="round" stroke-linejoin="round"/>
<path d="M34.3764 48.3194L33.247 47.543H26.7294L25.6 48.3194L25.0117 53.5194L25.5529 53.0018H34.4235L35.0117 53.5194L34.3764 48.3194Z" fill="#161616" stroke="#161616" stroke-linecap="round" stroke-linejoin="round"/>
<path d="M58 20.8614L60 11.2614L57.0118 2.34375L34.3765 19.1438L43.0823 26.5085L55.3882 30.1085L58.1176 26.932L56.9412 26.0849L58.8235 24.3673L57.3647 23.2379L59.2471 21.8026L58 20.8614Z" fill="#763D16" stroke="#763D16" stroke-linecap="round" stroke-linejoin="round"/>
<path d="M0 11.2614L2 20.8614L0.729412 21.8026L2.61177 23.2379L1.17647 24.3673L3.05882 26.0849L1.88235 26.932L4.58824 30.1085L16.8941 26.5085L25.6 19.1438L2.96471 2.34375L0 11.2614Z" fill="#763D16" stroke="#763D16" stroke-linecap="round" stroke-linejoin="round"/>
<path d="M55.3883 30.1078L43.0824 26.5078L46.8235 32.1313L41.2471 42.9549L48.5882 42.8608H59.5294L55.3883 30.1078Z" fill="#F6851B" stroke="#F6851B" stroke-linecap="round" stroke-linejoin="round"/>
<path d="M16.8941 26.5078L4.58826 30.1078L0.494141 42.8608H11.4118L18.7294 42.9549L13.1765 32.1313L16.8941 26.5078Z" fill="#F6851B" stroke="#F6851B" stroke-linecap="round" stroke-linejoin="round"/>
<path d="M33.6002 32.7197L34.3767 19.1432L37.9532 9.47266H22.0708L25.6002 19.1432L26.4237 32.7197L26.7061 37.0021L26.7296 47.5432H33.2473L33.2943 37.0021L33.6002 32.7197Z" fill="#F6851B" stroke="#F6851B" stroke-linecap="round" stroke-linejoin="round"/>
</g>
<defs>
<clipPath id="clip0_2081_459">
<rect width="60" height="60" fill="white"/>
</clipPath>
</defs>
</svg>
