<svg width="696" height="1003" viewBox="0 0 696 1003" fill="none" xmlns="http://www.w3.org/2000/svg">
<g opacity="0.8">
<g filter="url(#filter0_f_598_3063)">
<ellipse cx="207.452" cy="251.438" rx="207.452" ry="251.438" transform="matrix(0.621408 0.783487 -0.838996 0.544137 130.039 314.031)" fill="url(#paint0_linear_598_3063)"/>
</g>
<g filter="url(#filter1_f_598_3063)">
<ellipse cx="125.147" cy="200.917" rx="125.147" ry="200.917" transform="matrix(0.253657 0.967294 -0.977773 0.209666 203.273 382.691)" fill="#C35CFC"/>
</g>
</g>
<g opacity="0.7">
<path opacity="0.5" d="M52.6108 1018.44C3.14557 1018.33 -45.5976 1006.57 -89.6712 984.112C-133.745 961.656 -171.91 929.136 -201.075 889.185C-230.24 849.234 -249.586 802.977 -257.544 754.158C-265.503 705.34 -261.852 655.334 -246.886 608.189C-231.92 561.044 -206.061 518.087 -171.402 482.796C-136.743 447.505 -94.2587 420.873 -47.3905 405.056C-0.522217 389.24 49.4125 384.683 98.3695 391.756C147.327 398.829 193.93 417.332 234.404 445.768C285.364 481.589 324.559 531.715 347.031 589.809C369.504 647.903 374.245 711.355 360.657 772.144C347.068 832.932 315.759 888.327 270.688 931.323C225.618 974.32 168.809 1002.99 107.446 1013.7C89.3364 1016.84 70.991 1018.43 52.6108 1018.44ZM53.726 395.768C-19.7215 395.763 -90.7457 422.043 -146.499 469.854C-202.252 517.665 -239.053 583.849 -250.245 656.435C-261.436 729.021 -246.28 803.216 -207.516 865.598C-168.753 927.98 -108.942 974.431 -38.9041 996.547C31.1342 1018.66 106.775 1014.98 174.337 986.177C241.899 957.37 296.919 905.335 329.446 839.486C361.973 773.637 369.859 698.322 351.677 627.164C333.494 556.007 290.444 493.705 230.315 451.53C178.611 415.198 116.919 395.782 53.726 395.954V395.768Z" fill="url(#paint1_linear_598_3063)"/>
<path opacity="0.4" d="M52.8026 1041.02C-0.266449 1040.97 -52.5754 1028.41 -99.884 1004.36C-147.193 980.32 -188.169 945.465 -219.491 902.628C-250.813 859.79 -271.6 810.175 -280.165 757.804C-288.731 705.434 -284.834 651.782 -268.792 601.198C-252.749 550.615 -225.012 504.523 -187.829 466.66C-150.645 428.797 -105.063 400.229 -54.7762 383.271C-4.48972 366.313 49.0854 361.443 101.606 369.056C154.126 376.668 204.113 396.549 247.515 427.086C306.29 468.364 350.372 527.308 373.353 595.352C396.335 663.396 397.019 736.995 375.307 805.454C353.595 873.914 310.618 933.667 252.62 976.031C194.622 1018.39 124.626 1041.16 52.8026 1041.02ZM53.7321 373.183C-25.1595 373.123 -101.468 401.299 -161.387 452.615C-221.306 503.93 -260.879 574.996 -272.947 652.955C-285.015 730.914 -268.78 810.618 -227.18 877.647C-185.58 944.675 -121.362 994.602 -46.1441 1018.39C29.0739 1042.19 110.324 1038.27 182.907 1007.36C255.49 976.453 314.613 920.585 349.578 849.869C384.543 779.153 393.043 698.258 373.538 621.819C354.034 545.381 307.813 478.447 243.24 433.127C187.778 394.054 121.576 373.114 53.7321 373.183Z" fill="url(#paint2_linear_598_3063)"/>
<path opacity="0.2" d="M52.8021 1069.18C-29.0956 1069.03 -108.574 1041.4 -172.905 990.722C-237.237 940.042 -282.7 869.242 -302.016 789.658C-321.331 710.075 -313.382 626.312 -279.44 551.783C-245.498 477.253 -187.528 416.268 -114.811 378.594C-42.094 340.919 41.1625 328.734 121.627 343.989C202.091 359.245 275.109 401.058 328.988 462.735C382.866 524.411 414.489 602.382 418.793 684.162C423.096 765.943 399.832 846.802 352.724 913.792C319.036 962.025 274.145 1001.36 221.905 1028.43C169.665 1055.49 111.637 1069.48 52.8021 1069.18ZM53.8246 345.021C-31.7676 344.965 -114.553 375.544 -179.557 431.224C-244.56 486.904 -287.488 564.009 -300.575 648.591C-313.662 733.172 -296.043 819.644 -250.907 892.364C-205.77 965.084 -136.097 1019.25 -54.4897 1045.06C27.1173 1070.87 115.268 1066.63 194.017 1033.09C272.765 999.556 336.91 938.945 374.848 862.224C412.785 785.503 422.01 697.738 400.854 614.806C379.698 531.874 329.558 459.251 259.504 410.076C199.25 367.788 127.438 345.074 53.8246 345.021Z" fill="url(#paint3_linear_598_3063)"/>
<path opacity="0.1" d="M52.704 1104.22C-37.0138 1104.04 -124.077 1073.77 -194.546 1018.24C-265.015 962.717 -314.813 885.152 -335.966 797.968C-357.12 710.784 -348.406 619.024 -311.219 537.38C-274.033 455.735 -210.524 388.93 -130.863 347.659C-51.2018 306.389 40.0043 293.041 128.152 309.753C216.299 326.465 296.29 372.27 355.315 439.834C414.34 507.398 448.986 592.812 453.706 682.401C458.425 771.99 432.944 860.572 381.344 933.963C344.404 986.788 295.209 1029.87 237.973 1059.52C180.737 1089.18 117.165 1104.51 52.704 1104.22ZM54.0981 309.801C31.1367 309.805 8.21866 311.795 -14.3996 315.749C-113.86 333.275 -202.72 388.507 -262.458 469.934C-322.196 551.36 -348.203 652.699 -335.058 752.828C-321.913 852.957 -270.631 944.15 -191.901 1007.4C-113.17 1070.65 -13.0651 1101.08 87.5493 1092.34C188.164 1083.61 281.525 1036.38 348.173 960.504C414.822 884.63 449.616 785.962 445.303 685.066C440.99 584.171 397.903 488.831 325.022 418.921C252.142 349.01 155.091 309.921 54.0981 309.801Z" fill="url(#paint4_linear_598_3063)"/>
<path opacity="0.1" d="M52.6357 1140C-45.0824 1139.8 -139.91 1106.83 -216.662 1046.34C-293.415 985.864 -347.653 901.379 -370.693 806.416C-393.733 711.453 -384.242 611.506 -343.739 522.577C-303.237 433.648 -234.065 360.882 -147.3 315.929C-60.5356 270.977 38.8035 256.438 134.811 274.641C230.819 292.844 317.943 342.736 382.231 416.328C446.52 489.92 484.255 582.955 489.395 680.538C494.536 778.121 466.783 874.606 410.581 954.545C370.347 1012.08 316.766 1059.01 254.426 1091.31C192.085 1123.61 122.845 1140.31 52.6357 1140ZM54.1541 274.693C29.1451 274.697 4.1835 276.865 -20.4517 281.172C-128.781 300.261 -225.565 360.421 -290.63 449.113C-355.694 537.805 -384.02 648.186 -369.704 757.249C-355.387 866.311 -299.532 965.641 -213.781 1034.54C-128.029 1103.43 -18.9982 1136.57 90.5883 1127.06C200.175 1117.54 301.861 1066.1 374.453 983.455C447.044 900.81 484.941 793.339 480.243 683.441C475.546 573.543 428.616 469.697 349.237 393.548C269.858 317.4 164.153 274.823 54.1541 274.693Z" fill="url(#paint5_linear_598_3063)"/>
<path d="M103.147 988.012C260.453 960.537 365.691 810.751 338.202 653.455C310.714 496.159 160.908 390.918 3.60176 418.393C-153.704 445.868 -258.943 595.654 -231.454 752.95C-203.965 910.246 -54.1593 1015.49 103.147 988.012Z" fill="url(#paint6_linear_598_3063)"/>
<path opacity="0.2" d="M238.774 778.847C275.207 738.42 312.662 695.948 337.013 647.993C334.242 633.749 330.389 619.737 325.488 606.078L296.211 643.253C289.812 649.577 286.001 658.06 285.523 667.044C285.523 670.297 286.824 673.457 287.196 676.803C289.241 694.925 269.537 707.1 252.622 713.977C235.707 720.855 215.445 729.963 213.865 748.178C213.401 754.405 215.352 760.539 214.981 766.765C213.958 783.959 196.392 794.646 180.964 802.36C182.637 795.018 174.272 788.419 166.837 789.163C163.054 789.832 159.451 791.275 156.252 793.402C153.053 795.529 150.329 798.294 148.249 801.524C138.955 813.234 133.193 827.267 123.062 838.141C112.931 849.014 96.2018 856.077 83.19 848.921C81.3672 847.603 79.3204 846.627 77.1489 846.04C75.212 845.893 73.2679 846.212 71.4793 846.969C49.2221 854.238 29.9395 868.561 16.551 887.769C4.09684 905.612 -6.03358 929.497 -27.4101 933.122L-37.7267 904.404C-58.0087 921.114 -80.34 935.168 -104.18 946.226C-89.4586 955.732 -73.9045 963.882 -57.709 970.575C-42.2815 966.605 -27.1559 961.543 -12.4467 955.426C-1.74272 951.663 7.84464 945.272 15.4357 936.839C20.314 929.524 24.5731 921.814 28.1686 913.791C33.7882 903.738 41.6828 895.14 51.2207 888.685C60.7587 882.23 71.6753 878.097 83.097 876.616C101.685 874.293 121.854 879.311 139.605 872.62C149.698 868.208 158.848 861.898 166.558 854.033C192.303 830.427 215.538 804.591 238.774 778.847Z" fill="white"/>
<path opacity="0.2" d="M302.061 786.376C293.77 791.825 285.209 796.85 276.41 801.432C267.631 805.31 259.096 809.717 250.851 814.629C240.256 821.971 232.263 837.398 241.557 849.016C244.159 852.082 245.739 851.432 242.3 853.755C240.141 855.09 237.679 855.857 235.144 855.986C227.143 856.247 219.134 855.999 211.165 855.242C203.771 854.597 196.347 856.073 189.763 859.497C183.178 862.921 177.706 868.15 173.988 874.573C170.178 881.265 167.668 888.7 164.137 895.577C158.701 905.602 151.077 914.273 141.831 920.948C126.519 932.075 109.993 941.429 92.5719 948.829C72.951 957.542 52.8054 965.023 32.2528 971.227C17.1963 975.874 1.76824 979.777 -13.1953 984.703C-6.13177 986.376 1.02468 987.863 8.27411 988.978C33.6171 983.429 58.4795 975.878 82.6272 966.394C100.386 959.706 117.548 951.53 133.931 941.952C149.589 933.771 163.263 922.255 173.988 908.216C182.353 895.949 186.164 873.458 201.871 869.09C213.953 865.837 227.151 870.763 239.512 869.09C248.806 867.975 266.465 860.819 261.632 848.644C260.331 845.298 256.056 843.625 254.847 840.28C253.081 835.354 257.078 830.15 260.703 827.454C270.137 821.84 280.023 817.021 290.258 813.049C303.831 805.972 316.821 797.83 329.107 788.7C332.15 778.898 334.663 768.939 336.636 758.867C325.624 768.664 314.082 777.847 302.061 786.376Z" fill="white"/>
<path opacity="0.2" d="M287.103 533.312C278.459 550.32 269.072 567.049 259.22 583.219C234.269 622.629 204.997 659.131 171.948 692.048C104.612 759.053 22.6164 809.482 -67.5611 839.352C-105.963 851.588 -145.234 860.909 -185.039 867.233C-181.259 872.748 -177.263 878.138 -173.05 883.404C-138.768 879.22 -104.968 871.75 -72.1152 861.099C68.679 817.201 189.907 725.866 270.931 602.643C281.526 586.658 291.378 570.115 300.486 553.294C296.118 545.859 291.75 539.725 287.103 533.312Z" fill="white"/>
<path opacity="0.2" d="M-1.01514 601.618C59.1179 554.127 117.857 499.388 151.409 431.823C138.978 427.307 126.244 423.673 113.303 420.949C93.7883 439.989 73.1159 457.805 51.4036 474.295C23.5212 495.113 -7.14941 513.235 -29.6412 539.815C-38.9353 550.782 -46.7423 563.142 -55.6647 574.48C-85.6132 610.383 -124.177 638.106 -167.752 655.056C-189.534 664.005 -211.89 671.488 -234.67 677.454C-236.11 694.214 -236.11 711.066 -234.67 727.825H-232.904C-146.654 707.101 -70.5352 656.357 -1.01514 601.618Z" fill="white"/>
<path opacity="0.2" d="M65.6257 414.631C54.5042 414.135 43.3632 414.29 32.2598 415.096C15.7558 434.216 -1.70874 452.487 -20.0662 469.836C-64.6154 512.957 -114.607 550.073 -168.772 580.244C-184.321 588.716 -200.297 596.378 -216.637 603.199L-218.589 604.036C-222.221 613.743 -225.324 623.639 -227.883 633.683C-214.685 629.407 -201.581 624.389 -188.848 618.999C-156.494 604.128 -125.702 586.071 -96.9285 565.096C-40.7022 525.415 10.3732 478.9 55.1233 426.62C58.748 422.624 62.2798 418.628 65.6257 414.631Z" fill="white"/>
<path opacity="0.2" d="M218.235 480.802C219.908 477.363 221.674 473.739 223.347 470.114L219.536 467.326C214.518 463.795 209.406 460.449 204.201 457.289C201.971 462.586 199.647 467.884 197.138 473.088C188.449 490.934 178.607 508.194 167.675 524.761C144.804 559.404 117.739 591.088 87.0951 619.092C20.8791 677.999 -56.579 722.891 -140.611 751.061C-164.599 759.574 -189.339 765.797 -214.499 769.649C-218.96 770.33 -223.422 770.888 -227.883 771.321C-226.86 775.689 -225.745 779.965 -224.444 784.333C-197.838 781.275 -171.515 776.116 -145.723 768.905C-14.0148 732.531 101.555 652.759 182.267 542.512C195.808 522.886 207.832 502.256 218.235 480.802Z" fill="white"/>
<g opacity="0.2">
<path d="M58.75 992.51C104.28 991.727 148.98 980.189 189.2 958.836C229.419 937.484 264.019 906.923 290.174 869.648C296.973 859.899 303.18 849.751 308.762 839.258C285.72 861.504 260.848 881.774 234.409 899.852C178.644 935.54 109.403 952.826 58.75 992.51Z" fill="black"/>
<path d="M151.685 850.785C144.86 856.698 137.061 861.383 128.636 864.633C118.498 867.055 108.109 868.272 97.6862 868.257C83.9979 868.83 70.6476 872.683 58.7594 879.492C46.8712 886.301 36.7932 895.867 29.3743 907.384C26.2196 914.147 22.5207 920.643 18.3143 926.807C15.0203 930.83 11.0592 934.257 6.60384 936.937C-18.4903 953.108 -52.321 957.941 -83.8281 957.848C-75.2775 962.495 -66.6339 966.584 -57.8974 970.302C-32.4315 968.629 -5.85049 962.309 18.5931 958.963C47.4049 954.967 77.239 950.692 102.24 935.543C113.717 928.567 123.802 919.523 131.982 908.871C140.253 897.997 146.387 885.544 154.752 874.856C166.153 861.83 178.791 849.941 192.486 839.354C224.588 809.871 254.068 777.656 280.595 743.072C302.463 717.922 321.854 690.72 338.497 661.845C338.497 661.288 339.055 660.637 339.427 660.08C337.923 650.223 335.906 640.451 333.385 630.805C289.693 716.574 227.659 791.678 151.685 850.785Z" fill="black"/>
<path d="M33.558 926.249C30.9556 930.245 28.4462 935.543 31.5132 939.26C33.3941 940.966 35.8516 941.896 38.3908 941.862C54.7032 942.234 70.7961 938.05 84.8614 929.781C100.383 921.788 115.997 911.193 122.038 894.465C122.711 892.507 122.711 890.381 122.038 888.424C121.356 887.024 120.352 885.805 119.108 884.868C117.864 883.931 116.416 883.303 114.882 883.034C80.2145 872.439 51.0309 899.576 33.558 926.249Z" fill="url(#paint7_linear_598_3063)"/>
<path d="M50.5693 921.322C49.6788 922.242 48.988 923.336 48.5402 924.536C48.0923 925.735 47.8972 927.014 47.9669 928.292C48.2901 929.523 48.962 930.634 49.9019 931.491C50.8418 932.349 52.0097 932.916 53.2647 933.125C55.7606 933.465 58.3008 933.242 60.6998 932.475C76.8531 928.328 91.47 919.616 102.802 907.382C103.791 906.432 104.581 905.295 105.126 904.036C106.427 900.226 103.267 896.322 99.7353 894.742C80.0317 884.148 60.6999 907.66 50.5693 921.322Z" fill="black"/>
<path d="M-67.4684 518.908C-26.882 489.366 9.34796 454.264 40.1575 414.633C-17.656 417.232 -73.3604 437.114 -119.753 471.708C-166.146 506.302 -201.094 554.017 -220.078 608.684C-166.638 583.359 -115.565 553.314 -67.4684 518.908Z" fill="black"/>
<path d="M43.7869 767.42C45.4599 762.494 37.188 761.1 33.1915 757.661C31.369 755.548 30.4542 752.801 30.6456 750.016C30.837 747.232 32.1191 744.636 34.2137 742.792C38.5441 739.221 43.7362 736.849 49.2704 735.914C78.4492 727.78 106.217 715.244 131.616 698.74C145.13 690.526 157.189 680.132 167.306 667.978C179.132 650.582 188.339 631.544 194.63 611.472C210.336 570.416 229.456 530.748 251.789 492.885C248.722 489.911 245.562 487.03 242.495 484.242L172.603 614.818C166.644 627.146 159.284 638.746 150.669 649.39C140.54 660.329 128.859 669.723 116.002 677.271C71.4006 705.197 21.9764 724.55 -29.7297 734.334C-38.6093 734.828 -47.0181 738.488 -53.4299 744.65C-59.0063 751.528 -55.8463 764.91 -47.0169 764.91C-44.4145 764.91 -41.5332 763.702 -39.3026 764.91C-35.492 767.234 -37.9086 773.182 -41.1615 776.249C-45.6345 780.167 -50.9272 783.035 -56.6522 784.643C-62.3772 786.251 -68.3895 786.558 -74.2486 785.542C-82.9851 784.055 -91.0709 779.687 -99.7144 777.922C-118.303 774.297 -136.333 782.754 -153.899 789.074C-174.488 796.452 -195.954 801.108 -217.75 802.921C-212.443 817.285 -206.01 831.206 -198.511 844.557C-113.284 833.962 -24.0602 820.115 43.7869 767.42Z" fill="black"/>
<path d="M144.343 789.633C159.585 777.84 174.11 765.147 187.839 751.622C230.685 708.686 261.356 655.433 291.562 602.924C297.789 591.957 304.109 580.805 309.313 569.188C306.711 564.262 304.016 559.337 301.042 554.504C281.331 592.729 258.97 629.529 234.124 664.634C217.761 688.266 199.682 710.662 180.032 731.641C133.619 779.479 78.3881 817.885 17.3848 844.745C-37.3563 868.737 -94.6745 886.356 -153.441 897.254L-160.133 898.648C-152.254 907.221 -143.875 915.321 -135.039 922.904C-33.1394 899.866 62.3175 854.331 144.343 789.633Z" fill="black"/>
<path d="M37.2786 596.788C45.7675 587.375 55.3815 579.041 65.9044 571.974C79.1181 565.684 92.6432 560.069 106.427 555.152C121.033 548.376 133.786 538.174 143.603 525.413C141.672 523.338 139.053 522.034 136.232 521.744C133.412 521.453 130.583 522.195 128.268 523.833C123.756 527.312 118.969 530.42 113.955 533.126C108.658 535.078 101.036 533.126 100.479 527.179C100.485 524.493 101.366 521.884 102.988 519.744C116.4 499.719 131.149 480.624 147.135 462.588C153.54 454.537 158.939 445.736 163.214 436.38C155.035 433.034 146.856 430.06 138.492 427.086C137.841 428.48 137.283 429.781 136.633 431.082C119.903 466.677 77.801 534.149 32.9103 533.312C25.6907 532.508 18.4199 532.259 11.1621 532.569C7.5506 532.801 4.10716 534.178 1.33249 536.502C-1.44218 538.825 -3.40347 541.973 -4.26617 545.487C-5.19559 553.108 1.21739 559.242 6.51505 564.725C32.2598 591.119 -45.2533 627.457 -65.2356 632.476C-77.7555 634.597 -90.0042 638.087 -101.762 642.884C-117.097 650.784 -127.413 665.561 -139.774 677.55C-144.552 682.218 -149.713 686.477 -155.203 690.282C-170.388 700.961 -187.644 708.337 -205.856 711.936C-215.789 713.763 -225.942 714.077 -235.969 712.866C-235.969 718.906 -235.318 724.947 -234.76 730.895C-196.562 736.007 -146.28 716.676 -120.722 705.152C-61.9837 678.795 -8.46503 642.089 37.2786 596.788Z" fill="black"/>
</g>
<path opacity="0.1" d="M253.177 494.462C328.366 573.365 297.789 787.491 154.845 875.502C2.79285 969.554 -196.752 867.138 -232.906 743.439C-226.476 789.097 -209.218 832.554 -182.573 870.185C-155.929 907.816 -120.67 938.53 -79.7401 959.762C-38.8096 980.995 6.60573 992.131 52.716 992.241C98.8263 992.352 144.294 981.433 185.326 960.397C226.358 939.361 261.763 908.816 288.587 871.313C315.412 833.81 332.877 790.436 339.527 744.81C346.176 699.184 341.816 652.629 326.811 609.031C311.806 565.432 286.591 526.055 253.27 494.184L253.177 494.462Z" fill="black"/>
<path opacity="0.1" d="M-112.916 939.999C-61.4443 976.102 0.392731 994.445 63.2262 992.249C126.06 990.053 186.465 967.437 235.29 927.829C284.115 888.22 318.699 833.778 333.801 772.75C348.903 711.722 343.701 647.435 318.982 589.629C323.536 600.781 381.811 741.673 235.335 885.817C82.8186 1035.82 -113.009 940.092 -148.141 911.096C-137.181 921.645 -125.402 931.31 -112.916 939.999Z" fill="black"/>
<path opacity="0.1" d="M-84.106 550.782C-89.5639 543.72 -96.9919 538.433 -105.452 535.589C-113.912 532.745 -123.025 532.471 -131.641 534.801C-140.257 537.132 -147.989 541.963 -153.862 548.684C-159.734 555.405 -163.484 563.715 -164.637 572.565C-165.79 581.415 -164.295 590.409 -160.341 598.41C-156.388 606.412 -150.152 613.063 -142.421 617.523C-134.69 621.984 -125.811 624.054 -116.904 623.473C-107.998 622.892 -99.4634 619.685 -92.3779 614.257C-87.6561 610.641 -83.6952 606.127 -80.7225 600.975C-77.7498 595.824 -75.8238 590.136 -75.0552 584.238C-74.2866 578.34 -74.6907 572.348 -76.2439 566.607C-77.7971 560.866 -80.4688 555.488 -84.106 550.782ZM-165.058 664.536C-177.255 673.91 -186.399 686.69 -191.334 701.26C-196.269 715.83 -196.773 731.536 -192.782 746.392C-188.791 761.249 -180.485 774.588 -168.913 784.725C-157.342 794.861 -143.024 801.339 -127.771 803.34C-112.518 805.34 -97.0142 802.774 -83.2196 795.965C-69.425 789.156 -57.9592 778.41 -50.2715 765.085C-42.5839 751.761 -39.0197 736.456 -40.0295 721.106C-41.0393 705.757 -46.5777 691.051 -55.9448 678.848C-62.1599 670.732 -69.9159 663.921 -78.768 658.807C-87.6201 653.694 -97.3944 650.377 -107.531 649.047C-117.667 647.718 -127.966 648.401 -137.838 651.059C-147.71 653.717 -156.959 658.297 -165.058 664.536ZM-32.8952 601.618C-38.4765 605.91 -42.6595 611.761 -44.9151 618.43C-47.1707 625.1 -47.3978 632.288 -45.5674 639.087C-43.7371 645.885 -39.9315 651.988 -34.6322 656.624C-29.3329 661.26 -22.7779 664.219 -15.7961 665.13C-8.81422 666.04 -1.71936 664.859 4.59131 661.737C10.902 658.614 16.145 653.691 19.6571 647.589C23.1692 641.487 24.7928 634.48 24.3223 627.455C23.8519 620.43 21.3086 613.703 17.0142 608.124C11.2575 600.644 2.76578 595.757 -6.59354 594.537C-15.9529 593.317 -25.4134 595.864 -32.8952 601.618Z" fill="white"/>
</g>
<defs>
<filter id="filter0_f_598_3063" x="-599.265" y="0.925781" width="1294.52" height="1224.92" filterUnits="userSpaceOnUse" color-interpolation-filters="sRGB">
<feFlood flood-opacity="0" result="BackgroundImageFix"/>
<feBlend mode="normal" in="SourceGraphic" in2="BackgroundImageFix" result="shape"/>
<feGaussianBlur stdDeviation="200" result="effect1_foregroundBlur_598_3063"/>
</filter>
<filter id="filter1_f_598_3063" x="-360.462" y="217.662" width="798.058" height="656.418" filterUnits="userSpaceOnUse" color-interpolation-filters="sRGB">
<feFlood flood-opacity="0" result="BackgroundImageFix"/>
<feBlend mode="normal" in="SourceGraphic" in2="BackgroundImageFix" result="shape"/>
<feGaussianBlur stdDeviation="100" result="effect1_foregroundBlur_598_3063"/>
</filter>
<linearGradient id="paint0_linear_598_3063" x1="425.879" y1="281.287" x2="40.5806" y2="328.059" gradientUnits="userSpaceOnUse">
<stop stop-color="#0075FF"/>
<stop offset="1" stop-color="#06B4FF"/>
</linearGradient>
<linearGradient id="paint1_linear_598_3063" x1="53.2971" y1="388.52" x2="53.2971" y2="1018.44" gradientUnits="userSpaceOnUse">
<stop stop-color="#C35CFC"/>
<stop offset="1" stop-color="#2AC0EE" stop-opacity="0"/>
</linearGradient>
<linearGradient id="paint2_linear_598_3063" x1="53.2557" y1="365.562" x2="53.2557" y2="1041.03" gradientUnits="userSpaceOnUse">
<stop stop-color="#C35CFC"/>
<stop offset="1" stop-color="#2AC0EE" stop-opacity="0"/>
</linearGradient>
<linearGradient id="paint3_linear_598_3063" x1="53.4812" y1="337.586" x2="53.4812" y2="1069.19" gradientUnits="userSpaceOnUse">
<stop stop-color="#C35CFC"/>
<stop offset="1" stop-color="#2AC0EE" stop-opacity="0"/>
</linearGradient>
<linearGradient id="paint4_linear_598_3063" x1="53.4975" y1="302.738" x2="53.4975" y2="1104.23" gradientUnits="userSpaceOnUse">
<stop stop-color="#C35CFC"/>
<stop offset="1" stop-color="#2AC0EE" stop-opacity="0"/>
</linearGradient>
<linearGradient id="paint5_linear_598_3063" x1="53.5" y1="267" x2="53.5" y2="1140" gradientUnits="userSpaceOnUse">
<stop stop-color="#C35CFC"/>
<stop offset="1" stop-color="#2AC0EE" stop-opacity="0"/>
</linearGradient>
<linearGradient id="paint6_linear_598_3063" x1="3.60161" y1="418.393" x2="103.092" y2="988.022" gradientUnits="userSpaceOnUse">
<stop stop-color="#C35CFC"/>
<stop offset="1" stop-color="#2AC0EE" stop-opacity="0"/>
</linearGradient>
<linearGradient id="paint7_linear_598_3063" x1="76.322" y1="880.684" x2="76.322" y2="941.885" gradientUnits="userSpaceOnUse">
<stop stop-color="#C35CFC"/>
<stop offset="1" stop-color="#2AC0EE" stop-opacity="0"/>
</linearGradient>
</defs>
</svg>
