<svg xmlns="http://www.w3.org/2000/svg" width="32" height="33" viewBox="0 0 32 33" fill="none">
  <path d="M16.1088 3.41992C8.866 3.41992 2.98779 9.29813 2.98779 16.5409C2.98779 23.7837 8.866 29.6619 16.1088 29.6619C23.3516 29.6619 29.2298 23.7837 29.2298 16.5409C29.2298 9.29813 23.3516 3.41992 16.1088 3.41992ZM22.1969 12.3422C22.0001 14.4153 21.1472 19.4538 20.7143 21.7762C20.5306 22.7603 20.1632 23.0883 19.822 23.1277C19.061 23.1933 18.4837 22.6291 17.7489 22.1436C16.5943 21.3826 15.9382 20.9102 14.8229 20.1754C13.524 19.3226 14.3637 18.8502 15.1116 18.0892C15.3084 17.8924 18.6674 14.8352 18.733 14.5596C18.7421 14.5179 18.7409 14.4746 18.7295 14.4334C18.718 14.3923 18.6967 14.3545 18.6674 14.3235C18.5887 14.2579 18.4837 14.2841 18.3918 14.2972C18.2738 14.3235 16.4368 15.5437 12.8548 17.958C12.3299 18.3122 11.8576 18.4959 11.4377 18.4828C10.9654 18.4697 10.0731 18.2204 9.40396 17.9973C8.57734 17.7349 7.93441 17.5906 7.98689 17.1314C8.01313 16.8952 8.34116 16.659 8.95785 16.4097C12.7892 14.7433 15.3346 13.6412 16.6074 13.1163C20.255 11.5943 21.0029 11.3319 21.5015 11.3319C21.6065 11.3319 21.8558 11.3581 22.0132 11.4893C22.1444 11.5943 22.1838 11.7386 22.1969 11.8436C22.1838 11.9223 22.21 12.1585 22.1969 12.3422Z" fill="white"/>
</svg>