<svg xmlns="http://www.w3.org/2000/svg" width="27" height="27" viewBox="0 0 27 27" fill="none">
  <g clip-path="url(#clip0_588_2685)">
    <path d="M13.226 0.316406C20.538 0.316406 26.4519 6.2303 26.4519 13.5424C26.4519 20.8544 20.538 26.7683 13.226 26.7683C5.91389 26.7683 0 20.8544 0 13.5424C0 6.2303 5.91389 0.316406 13.226 0.316406ZM10.8075 20.5143C16.6647 20.5143 19.8767 15.6585 19.8767 11.4451V11.0294C20.5002 10.576 21.0482 10.0091 21.4638 9.36674C20.897 9.61237 20.2735 9.78242 19.6311 9.87689C20.2924 9.48011 20.8025 8.8566 21.0293 8.11972C20.4058 8.47871 19.7256 8.74323 19.0076 8.89439C18.4219 8.27088 17.5905 7.89299 16.6836 7.89299C14.9264 7.89299 13.4905 9.32895 13.4905 11.0861C13.4905 11.3317 13.5094 11.5774 13.585 11.8041C10.9398 11.6718 8.57798 10.4059 7.00976 8.47871C6.74524 8.95107 6.57519 9.499 6.57519 10.0847C6.57519 11.1806 7.14202 12.1631 7.99226 12.7299C7.46322 12.7299 6.97197 12.5788 6.5563 12.3331V12.3709C6.5563 13.9203 7.65216 15.2051 9.10702 15.5074C8.8425 15.5829 8.55909 15.6207 8.27567 15.6207C8.06784 15.6207 7.87889 15.6018 7.67106 15.5641C8.06784 16.83 9.25817 17.7558 10.6375 17.7747C9.54159 18.6249 8.16231 19.1351 6.66966 19.1351C6.40514 19.1351 6.15952 19.1351 5.91389 19.0973C7.31207 20.0042 8.99365 20.5332 10.7886 20.5332" fill="white"/>
  </g>
  <defs>
    <clipPath id="clip0_588_2685">
      <rect width="26.4519" height="26.4519" fill="white" transform="translate(0 0.316406)"/>
    </clipPath>
  </defs>
</svg>