<svg width="60" height="60" viewBox="0 0 60 60" fill="none" xmlns="http://www.w3.org/2000/svg">
<g clip-path="url(#clip0_610_2835)">
<path d="M30 60C46.5685 60 60 46.5685 60 30C60 13.4315 46.5685 0 30 0C13.4315 0 0 13.4315 0 30C0 46.5685 13.4315 60 30 60Z" fill="url(#paint0_radial_610_2835)"/>
<path d="M18.8379 23.1709C24.873 17.2764 34.6699 17.2764 40.7051 23.1709L41.4316 23.8857C41.7363 24.1787 41.7363 24.6592 41.4316 24.9521L38.9473 27.3779C38.7949 27.5303 38.5488 27.5303 38.3965 27.3779L37.4004 26.4053C33.1816 22.292 26.3613 22.292 22.1426 26.4053L21.0762 27.4482C20.9238 27.6006 20.6777 27.6006 20.5254 27.4482L18.041 25.0225C17.7363 24.7295 17.7363 24.249 18.041 23.9561L18.8379 23.1709ZM45.8496 28.1865L48.0645 30.3428C48.3691 30.6357 48.3691 31.1162 48.0645 31.4092L38.0918 41.1475C37.7871 41.4404 37.2949 41.4404 37.002 41.1475L29.9238 34.2334C29.8535 34.1631 29.7246 34.1631 29.6543 34.2334L22.5762 41.1475C22.2715 41.4404 21.7793 41.4404 21.4863 41.1475L11.4785 31.4092C11.1738 31.1162 11.1738 30.6357 11.4785 30.3428L13.6934 28.1865C13.998 27.8936 14.4902 27.8936 14.7832 28.1865L21.8613 35.1006C21.9316 35.1709 22.0605 35.1709 22.1309 35.1006L29.209 28.1865C29.5137 27.8936 30.0059 27.8936 30.2988 28.1865L37.377 35.1006C37.4473 35.1709 37.5762 35.1709 37.6465 35.1006L44.7246 28.1865C45.0527 27.8936 45.5449 27.8936 45.8496 28.1865Z" fill="white"/>
</g>
<defs>
<radialGradient id="paint0_radial_610_2835" cx="0" cy="0" r="1" gradientUnits="userSpaceOnUse" gradientTransform="translate(0.000185966 30.0009) scale(60)">
<stop stop-color="#5D9DF6"/>
<stop offset="1" stop-color="#006FFF"/>
</radialGradient>
<clipPath id="clip0_610_2835">
<rect width="60" height="60" fill="white"/>
</clipPath>
</defs>
</svg>
