<svg xmlns="http://www.w3.org/2000/svg" width="29" height="29" viewBox="0 0 29 29" fill="none">
  <g clip-path="url(#clip0_588_2711)">
    <path d="M17.0192 13.9412L13.9072 12.4892C13.6356 12.3631 13.4125 12.5044 13.4125 12.8051V15.5402C13.4125 15.8409 13.6356 15.9822 13.9072 15.8561L17.0178 14.404C17.2908 14.2765 17.2908 14.0687 17.0192 13.9412ZM14.7981 0.871094C7.45179 0.871094 1.49658 6.8263 1.49658 14.1726C1.49658 21.519 7.45179 27.4742 14.7981 27.4742C22.1444 27.4742 28.0997 21.519 28.0997 14.1726C28.0997 6.8263 22.1444 0.871094 14.7981 0.871094ZM14.7981 19.5764C7.9894 19.5764 7.87023 18.9626 7.87023 14.1726C7.87023 9.38269 7.9894 8.76888 14.7981 8.76888C21.6068 8.76888 21.726 9.38269 21.726 14.1726C21.726 18.9626 21.6068 19.5764 14.7981 19.5764Z" fill="white"/>
  </g>
  <defs>
    <clipPath id="clip0_588_2711">
      <rect width="27.7115" height="27.7115" fill="white" transform="translate(0.942383 0.316406)"/>
    </clipPath>
  </defs>
</svg>